<?xml version="1.0" encoding="UTF-8" standalone="no"?>
<svg
   viewBox="0 0 144 137"
   version="1.1"
   id="svg54"
   sodipodi:docname="logo_color.svg"
   width="144"
   height="137"
   inkscape:version="1.2.2 (b0a8486541, 2022-12-01)"
   inkscape:export-filename="logo_red.png"
   inkscape:export-xdpi="400"
   inkscape:export-ydpi="400"
   xmlns:inkscape="http://www.inkscape.org/namespaces/inkscape"
   xmlns:sodipodi="http://sodipodi.sourceforge.net/DTD/sodipodi-0.dtd"
   xmlns="http://www.w3.org/2000/svg"
   xmlns:svg="http://www.w3.org/2000/svg">
  <defs
     id="defs58">
    <rect
       x="6.1243773"
       y="108.16323"
       width="117.73911"
       height="31.575207"
       id="rect1532" />
    <rect
       x="9.5832748"
       y="109.14206"
       width="125.44712"
       height="28.486874"
       id="rect1526" />
    <rect
       x="8.5935955"
       y="111.35148"
       width="105.83487"
       height="30.057011"
       id="rect442" />
  </defs>
  <sodipodi:namedview
     id="namedview56"
     pagecolor="#ffffff"
     bordercolor="#000000"
     borderopacity="0.25"
     inkscape:showpageshadow="2"
     inkscape:pageopacity="0"
     inkscape:pagecheckerboard="0"
     inkscape:deskcolor="#d1d1d1"
     showgrid="false"
     inkscape:zoom="6.1538462"
     inkscape:cx="50.7"
     inkscape:cy="73.531249"
     inkscape:window-width="1920"
     inkscape:window-height="2092"
     inkscape:window-x="1920"
     inkscape:window-y="0"
     inkscape:window-maximized="0"
     inkscape:current-layer="text1530" />
  <path
     d="M 25.4,82.8 35.924,70.66 h 7.09 v 32.742 H 34.855 V 82.967 L 26.009,93.233 H 24.784 L 15.94,82.967 v 20.438 H 7.784 V 70.663 h 7.082 z"
     fill="#ffffff"
     id="path28"
     style="fill:#aa0000" />
  <path
     d="m 61.09,70.663 v 32.742 H 52.934 V 70.663 Z"
     fill="#ffffff"
     id="path30"
     style="fill:#aa0000" />
  <path
     d="m 70.99,70.663 h 14.438 q 8.367,0 13.23,4.582 a 15.542,15.542 0 0 1 4.863,11.847 q 0,7.617 -4.933,11.965 -4.933,4.348 -14.074,4.348 H 70.99 Z m 8.156,6 v 20.742 h 5.321 q 5.18,0 7.922,-2.848 a 10.373,10.373 0 0 0 2.742,-7.512 10.28,10.28 0 0 0 -2.777,-7.605 q -2.778,-2.778 -7.981,-2.777 z"
     fill="#ffffff"
     id="path32"
     style="fill:#aa0000" />
  <path
     d="m 136.883,97.405 v 6 H 111.922 V 70.663 h 8.156 v 26.742 z"
     fill="#ffffff"
     id="path34"
     style="fill:#aa0000" />
  <path
     d="m 57.608,52.438 a 7.832,7.832 0 1 1 -7.832,-7.832 7.831,7.831 0 0 1 7.832,7.832 z"
     fill="#ffffff"
     id="path36"
     style="fill:#aa0000;stroke:#aa0000;stroke-opacity:1" />
  <line
     x1="49.776001"
     y1="52.438"
     x2="91.264999"
     y2="34.551998"
     fill="none"
     stroke="#ffffff"
     stroke-miterlimit="10"
     stroke-width="2"
     id="line38"
     style="fill:#aa0000;stroke:#aa0000;stroke-opacity:1" />
  <path
     d="M 101.319,34.552 A 10.054,10.054 0 1 1 91.265,24.5 10.054,10.054 0 0 1 101.319,34.552 Z"
     fill="#ffffff"
     id="path40"
     style="fill:#aa0000;stroke:#aa0000;stroke-opacity:1" />
  <path
     d="m 30.379,38.324 a 5.717,5.717 0 1 1 -5.716,-5.718 5.717,5.717 0 0 1 5.716,5.718 z"
     fill="#ffffff"
     id="path42"
     style="fill:#aa0000;stroke:#aa0000;stroke-opacity:1" />
  <line
     x1="21.915001"
     y1="36.604"
     x2="50.264999"
     y2="52.551998"
     fill="none"
     stroke="#ffffff"
     stroke-miterlimit="10"
     stroke-width="2"
     id="line44"
     style="fill:#aa0000;stroke:#aa0000;stroke-opacity:1" />
  <path
     d="m 125.38,47.324 a 5.718,5.718 0 1 1 -5.717,-5.718 5.718,5.718 0 0 1 5.717,5.718 z"
     fill="#ffffff"
     id="path46"
     style="fill:#aa0000;stroke:#aa0000;stroke-opacity:1" />
  <line
     x1="90.776001"
     y1="34.438"
     x2="119.662"
     y2="47.324001"
     fill="none"
     stroke="#ffffff"
     stroke-miterlimit="10"
     stroke-width="2"
     id="line48"
     style="fill:#aa0000;stroke:#aa0000;stroke-opacity:1" />
  <line
     x1="90.776001"
     y1="33.438"
     x2="110.381"
     y2="10.042"
     fill="none"
     stroke="#ffffff"
     stroke-miterlimit="10"
     stroke-width="2"
     id="line50"
     style="fill:#aa0000;stroke:#aa0000;stroke-opacity:1" />
  <path
     d="m 113.816,10.042 a 3.436,3.436 0 1 1 -3.434,-3.436 3.435,3.435 0 0 1 3.434,3.436 z"
     fill="#ffffff"
     id="path52"
     style="fill:#aa0000;stroke:#aa0000;stroke-opacity:1" />
  <text
     xml:space="preserve"
     id="text440"
     style="font-weight:100;font-size:24px;font-family:'IBM Plex Sans';-inkscape-font-specification:'IBM Plex Sans Thin';white-space:pre;shape-inside:url(#rect442);shape-padding:0.769971;display:inline;fill:#ffffff;stroke:#ffffff"
     transform="matrix(1.2887089,0,0,1.2887089,-5.4789855,-40.77846)" />
  <text
     xml:space="preserve"
     id="text1524"
     style="font-style:normal;font-variant:normal;font-weight:normal;font-stretch:normal;font-size:26.6667px;font-family:'Gill Sans MT';-inkscape-font-specification:'Gill Sans MT';white-space:pre;shape-inside:url(#rect1526);display:inline;fill:#ffffff;stroke:#ffffff" />
  <g
     aria-label="Paris 2024"
     transform="matrix(1.1777017,0,0,1.1777017,-1.0704766,-22.562514)"
     id="text1530"
     style="font-size:20.3787px;font-family:'Gill Sans MT';-inkscape-font-specification:'Gill Sans MT';letter-spacing:1.7159px;white-space:pre;shape-inside:url(#rect1532);shape-padding:0.0719548;display:inline;fill:#ffffff;stroke:#ffffff;stroke-width:0">
    <path
       d="m 7.888857,112.17024 h 6.199185 q 2.109514,0 3.353331,1.22392 1.243817,1.22391 1.243817,2.8956 0,1.7314 -1.233867,2.96526 -1.223916,1.23387 -3.34338,1.23387 h -2.756299 v 5.58225 H 7.888857 Z m 3.462787,2.54734 v 3.22397 h 1.611987 q 2.159267,0 2.159267,-1.61199 0,-0.90549 -0.577132,-1.25376 -0.577131,-0.35822 -1.970206,-0.35822 z"
       style="font-weight:bold;-inkscape-font-specification:'Gill Sans MT Bold';fill:#aa0000"
       id="path3885" />
    <path
       d="m 31.485988,123.75267 v 1.64183 q -1.47268,0.85575 -2.766249,0.85575 -1.393076,0 -1.65179,-1.05476 -1.542333,1.05476 -3.094617,1.05476 -1.094559,0 -1.86075,-0.68659 -0.766191,-0.69653 -0.766191,-1.61198 0,-1.22392 0.786092,-1.97021 0.796043,-0.75624 4.796159,-1.94036 0.09951,-1.57218 -1.631888,-1.57218 -1.880652,0 -3.462787,1.57218 v -2.40803 q 1.8508,-1.14431 4.06977,-1.14431 3.980215,0 3.980215,2.85581 v 4.27873 q 0,0.65673 0.487576,0.65673 0.36817,0 1.11446,-0.52737 z m -4.557346,0.0398 v -2.26873 q -1.48263,0.51743 -2.03986,0.93536 -0.54728,0.40797 -0.54728,1.0448 0,0.40797 0.278615,0.70649 0.278615,0.28857 0.676637,0.28857 0.835845,0 1.631888,-0.70649 z"
       style="font-weight:bold;-inkscape-font-specification:'Gill Sans MT Bold';fill:#aa0000"
       id="path3887" />
    <path
       d="m 37.460719,116.67783 v 2.68665 h 0.0398 q 1.283619,-2.87571 2.995112,-2.87571 0.815944,0 1.960256,0.85575 l -0.815944,2.61699 q -1.094559,-0.69654 -1.751295,-0.69654 -1.024905,0 -1.731393,1.27367 -0.696538,1.26372 -0.696538,1.47268 v 4.05982 h -2.95531 v -9.39331 z"
       style="font-weight:bold;-inkscape-font-specification:'Gill Sans MT Bold';fill:#aa0000"
       id="path3889" />
    <path
       d="m 45.176794,113.62302 q 0,-0.67664 0.477626,-1.15426 0.477626,-0.47763 1.144312,-0.47763 0.676636,0 1.154262,0.47763 0.477626,0.47762 0.477626,1.15426 0,0.66668 -0.477626,1.15426 -0.477626,0.47763 -1.154262,0.47763 -0.666686,0 -1.144312,-0.47763 -0.477626,-0.48758 -0.477626,-1.15426 z m 3.114518,3.05481 v 9.39331 h -2.955309 v -9.39331 z"
       style="font-weight:bold;-inkscape-font-specification:'Gill Sans MT Bold';fill:#aa0000"
       id="path3891" />
    <path
       d="m 58.972643,117.18531 v 2.09956 q -1.691591,-1.03485 -3.134419,-1.03485 -1.064707,0 -1.064707,0.72639 0,0.18906 0.218912,0.37812 0.228862,0.17911 1.721442,0.77614 1.492581,0.58708 2.109514,1.36322 0.616934,0.77615 0.616934,1.70155 0,1.46272 -0.995054,2.25877 -0.995054,0.79604 -2.835903,0.79604 -1.890602,0 -3.363282,-0.68659 V 123.484 q 1.810998,0.79604 3.034914,0.79604 1.432877,0 1.432877,-0.69653 0,-0.26867 -0.268664,-0.50748 -0.258714,-0.23881 -1.771196,-0.8259 -1.512481,-0.58708 -2.069711,-1.29357 -0.55723,-0.70648 -0.55723,-1.57218 0,-1.28362 1.064707,-2.08961 1.074658,-0.806 2.825953,-0.806 1.68164,0 3.034913,0.69654 z"
       style="font-weight:bold;-inkscape-font-specification:'Gill Sans MT Bold';fill:#aa0000"
       id="path3893" />
    <path
       d="m 79.370112,123.23524 v 2.8359 h -9.184346 v -0.38807 q 1.263719,-1.54233 2.885656,-3.90061 1.631888,-2.36823 2.059762,-3.36328 0.427873,-0.99506 0.427873,-1.93041 0,-0.81594 -0.54728,-1.40302 -0.537329,-0.58708 -1.30352,-0.58708 -1.522433,0 -3.343381,1.73139 v -2.91551 q 2.03986,-1.32342 3.89066,-1.32342 2.049811,0 3.223974,1.05476 1.184114,1.05475 1.184114,2.8956 0,2.51749 -3.771253,7.29375 z"
       style="font-weight:bold;-inkscape-font-specification:'Gill Sans MT Bold';fill:#aa0000"
       id="path3895" />
    <path
       d="m 87.683214,111.99113 q 2.20902,0 3.442886,1.90055 1.243817,1.90056 1.243817,5.16433 0,3.39313 -1.204015,5.29369 -1.204015,1.90055 -3.442885,1.90055 -2.268723,0 -3.532441,-1.8906 -1.253768,-1.8906 -1.253768,-5.23398 0,-3.38319 1.273669,-5.25389 1.283619,-1.88065 3.472737,-1.88065 z m 0,11.65208 q 0.835846,0 1.213966,-1.005 0.37812,-1.01496 0.37812,-3.80111 0,-2.31848 -0.37812,-3.27373 -0.36817,-0.9652 -1.233867,-0.9652 -0.845795,0 -1.243817,0.9453 -0.388071,0.93535 -0.388071,3.7215 0,2.33838 0.388071,3.36328 0.398022,1.01496 1.263718,1.01496 z"
       style="font-weight:bold;-inkscape-font-specification:'Gill Sans MT Bold';fill:#aa0000"
       id="path3897" />
    <path
       d="m 105.29012,123.23524 v 2.8359 h -9.184344 v -0.38807 q 1.263718,-1.54233 2.885656,-3.90061 1.631888,-2.36823 2.059758,-3.36328 0.42788,-0.99506 0.42788,-1.93041 0,-0.81594 -0.54728,-1.40302 -0.53733,-0.58708 -1.303524,-0.58708 -1.522432,0 -3.34338,1.73139 v -2.91551 q 2.03986,-1.32342 3.890664,-1.32342 2.04981,0 3.22397,1.05476 1.18411,1.05475 1.18411,2.8956 0,2.51749 -3.77125,7.29375 z"
       style="font-weight:bold;-inkscape-font-specification:'Gill Sans MT Bold';fill:#aa0000"
       id="path3899" />
    <path
       d="m 117.29488,111.99113 v 8.43806 h 0.93535 v 2.21897 h -0.93535 v 3.42298 h -3.07472 v -3.42298 h -5.42304 v -2.21897 l 6.5375,-8.43806 z m -6.04993,8.43806 h 2.97521 v -3.79116 z"
       style="font-weight:bold;-inkscape-font-specification:'Gill Sans MT Bold';fill:#aa0000"
       id="path3901" />
  </g>
  <text
     xml:space="preserve"
     style="font-style:normal;font-variant:normal;font-weight:normal;font-stretch:normal;font-size:26.6667px;font-family:'Gill Sans MT';-inkscape-font-specification:'Gill Sans MT';fill:#ffffff;stroke:#aa0000;stroke-width:1.166;stroke-dasharray:none"
     x="18.292953"
     y="12.767953"
     id="text910"><tspan
       sodipodi:role="line"
       id="tspan908"
       x="18.292953"
       y="12.767953" /></text>
  <text
     xml:space="preserve"
     style="font-style:normal;font-variant:normal;font-weight:normal;font-stretch:normal;font-size:26.6667px;font-family:'Gill Sans MT';-inkscape-font-specification:'Gill Sans MT';fill:#ffffff;stroke:#aa0000;stroke-width:1.166;stroke-dasharray:none"
     x="22.215567"
     y="14.144433"
     id="text1016"><tspan
       sodipodi:role="line"
       id="tspan1014" /></text>
</svg>
